<svg aria-label="Kubernetes reconciliation loop - mental model, который нужен для AX/Substrate" class="diagram" role="img" viewbox="0 0 900 280"><defs><marker id="arrow" markerheight="10" markerunits="strokeWidth" markerwidth="10" orient="auto" refx="8" refy="3"><path d="M0,0 L0,6 L9,3 z" fill="#53657a"></path></marker></defs><line marker-end="url(#arrow)" stroke="#53657a" stroke-width="2" x1="145" x2="190" y1="132.5" y2="132.5"></line><text fill="#5c6875" font-size="10" text-anchor="middle" x="167.5" y="126.5">write</text><line marker-end="url(#arrow)" stroke="#53657a" stroke-width="2" x1="250.0" x2="420.0" y1="165" y2="20"></line><text fill="#5c6875" font-size="10" text-anchor="middle" x="335.0" y="86.5">persist</text><line marker-end="url(#arrow)" stroke="#53657a" stroke-width="2" x1="420.0" x2="420.0" y1="85" y2="180"></line><text fill="#5c6875" font-size="10" text-anchor="middle" x="420.0" y="126.5">watch</text><line marker-end="url(#arrow)" stroke="#53657a" stroke-width="2" x1="420.0" x2="250.0" y1="245" y2="100"></line><text fill="#5c6875" font-size="10" text-anchor="middle" x="335.0" y="166.5">update</text><line marker-end="url(#arrow)" stroke="#53657a" stroke-width="2" x1="310" x2="550" y1="132.5" y2="132.5"></line><text fill="#5c6875" font-size="10" text-anchor="middle" x="430.0" y="126.5">objects</text><line marker-end="url(#arrow)" stroke="#53657a" stroke-width="2" x1="680" x2="740" y1="132.5" y2="132.5"></line><text fill="#5c6875" font-size="10" text-anchor="middle" x="710.0" y="126.5">desired workload</text><rect fill="#edf4ff" height="65" rx="12" ry="12" stroke="#2d5d9f" stroke-width="1.5" width="120" x="25" y="100"></rect><text fill="#17212b" font-size="14" font-weight="700" text-anchor="middle" x="85.0" y="124">Desired state</text><text fill="#465569" font-size="11" text-anchor="middle" x="85.0" y="145">YAML/API</text><rect fill="#eefaf3" height="65" rx="12" ry="12" stroke="#287a4b" stroke-width="1.5" width="120" x="190" y="100"></rect><text fill="#17212b" font-size="14" font-weight="700" text-anchor="middle" x="250.0" y="124">API server</text><text fill="#465569" font-size="11" text-anchor="middle" x="250.0" y="145">validate/store</text><rect fill="#fff7e8" height="65" rx="12" ry="12" stroke="#9a6410" stroke-width="1.5" width="120" x="360" y="20"></rect><text fill="#17212b" font-size="14" font-weight="700" text-anchor="middle" x="420.0" y="44">etcd</text><text fill="#465569" font-size="11" text-anchor="middle" x="420.0" y="65">cluster state</text><rect fill="#f8efff" height="65" rx="12" ry="12" stroke="#70459b" stroke-width="1.5" width="120" x="360" y="180"></rect><text fill="#17212b" font-size="14" font-weight="700" text-anchor="middle" x="420.0" y="204">Controller</text><text fill="#465569" font-size="11" text-anchor="middle" x="420.0" y="225">observe/diff</text><rect fill="#f3f5f7" height="65" rx="12" ry="12" stroke="#495463" stroke-width="1.5" width="130" x="550" y="100"></rect><text fill="#17212b" font-size="14" font-weight="700" text-anchor="middle" x="615.0" y="124">Actual state</text><text fill="#465569" font-size="11" text-anchor="middle" x="615.0" y="145">Pods/services</text><rect fill="#fff0f0" height="65" rx="12" ry="12" stroke="#a23d3d" stroke-width="1.5" width="130" x="740" y="100"></rect><text fill="#17212b" font-size="14" font-weight="700" text-anchor="middle" x="805.0" y="124">kubelet/runtime</text><text fill="#465569" font-size="11" text-anchor="middle" x="805.0" y="145">execute</text></svg>