<svg aria-label="Runner contract: почему PID 1 здесь является частью платформенного API" class="diagram" height="330" role="img" viewbox="0 0 900 330" width="900" xmlns="http://www.w3.org/2000/svg"><defs><marker id="arrow" markerheight="10" markerunits="strokeWidth" markerwidth="10" orient="auto" refx="8" refy="3"><path d="M0,0 L0,6 L9,3 z" fill="#53657a"></path></marker></defs><line marker-end="url(#arrow)" stroke="#53657a" stroke-width="2" x1="95.0" x2="305.0" y1="105" y2="110"></line><text fill="#5c6875" font-size="10" text-anchor="middle" x="200.0" y="101.5">launch</text><line marker-end="url(#arrow)" stroke="#53657a" stroke-width="2" x1="305.0" x2="530.0" y1="190" y2="20"></line><text fill="#5c6875" font-size="10" text-anchor="middle" x="417.5" y="99.0">prepare once</text><line marker-end="url(#arrow)" stroke="#53657a" stroke-width="2" x1="610" x2="690" y1="55.0" y2="55.0"></line><text fill="#5c6875" font-size="10" text-anchor="middle" x="650.0" y="49.0">write</text><line marker-end="url(#arrow)" stroke="#53657a" stroke-width="2" x1="380" x2="450" y1="150.0" y2="155.0"></line><text fill="#5c6875" font-size="10" text-anchor="middle" x="415.0" y="146.5">supervise</text><line marker-end="url(#arrow)" stroke="#53657a" stroke-width="2" x1="305.0" x2="530.0" y1="190" y2="220"></line><text fill="#5c6875" font-size="10" text-anchor="middle" x="417.5" y="199.0">serve</text><line marker-end="url(#arrow)" stroke="#53657a" stroke-width="2" x1="610" x2="690" y1="255.0" y2="255.0"></line><text fill="#5c6875" font-size="10" text-anchor="middle" x="650.0" y="249.0">observe</text><rect fill="#edf4ff" height="65" rx="12" ry="12" stroke="#2d5d9f" stroke-width="1.5" width="150" x="20" y="40"></rect><text fill="#17212b" font-size="14" font-weight="700" text-anchor="middle" x="95.0" y="64">AX_* YAML/env</text><text fill="#465569" font-size="11" text-anchor="middle" x="95.0" y="85">Task + Workspaces</text><rect fill="#f8efff" height="80" rx="12" ry="12" stroke="#70459b" stroke-width="1.5" width="150" x="230" y="110"></rect><text fill="#17212b" font-size="14" font-weight="700" text-anchor="middle" x="305.0" y="134">ax-task-runner</text><text fill="#465569" font-size="11" text-anchor="middle" x="305.0" y="155">PID 1</text><rect fill="#eefaf3" height="70" rx="12" ry="12" stroke="#287a4b" stroke-width="1.5" width="160" x="450" y="20"></rect><text fill="#17212b" font-size="14" font-weight="700" text-anchor="middle" x="530.0" y="44">Workspace init</text><text fill="#465569" font-size="11" text-anchor="middle" x="530.0" y="65">Git/MCP/Skills/goal</text><rect fill="#fff0f0" height="70" rx="12" ry="12" stroke="#a23d3d" stroke-width="1.5" width="160" x="450" y="120"></rect><text fill="#17212b" font-size="14" font-weight="700" text-anchor="middle" x="530.0" y="144">Agent command</text><text fill="#465569" font-size="11" text-anchor="middle" x="530.0" y="165">child process</text><rect fill="#fff7e8" height="70" rx="12" ry="12" stroke="#9a6410" stroke-width="1.5" width="160" x="450" y="220"></rect><text fill="#17212b" font-size="14" font-weight="700" text-anchor="middle" x="530.0" y="244">HTTP/gRPC</text><text fill="#465569" font-size="11" text-anchor="middle" x="530.0" y="265">health/ready/debug</text><rect fill="#f3f5f7" height="70" rx="12" ry="12" stroke="#495463" stroke-width="1.5" width="170" x="690" y="20"></rect><text fill="#17212b" font-size="14" font-weight="700" text-anchor="middle" x="775.0" y="44">/workspace</text><text fill="#465569" font-size="11" text-anchor="middle" x="775.0" y="65">durable files</text><rect fill="#edf4ff" height="70" rx="12" ry="12" stroke="#2d5d9f" stroke-width="1.5" width="170" x="690" y="220"></rect><text fill="#17212b" font-size="14" font-weight="700" text-anchor="middle" x="775.0" y="244">AX/Substrate</text><text fill="#465569" font-size="11" text-anchor="middle" x="775.0" y="265">probe + ssh</text></svg>