<svg aria-label="Tensor parallelism: extra GPUs add communication, not just VRAM" class="diagram diagram-redrawn" height="144.92" role="img" style="width:100%;height:auto;overflow:visible" viewbox="0.00 0.00 811.92 144.92" width="811.92" xmlns="http://www.w3.org/2000/svg" xmlns:xlink="http://www.w3.org/1999/xlink">
<g class="graph" transform="scale(1 1) rotate(0) translate(12.96 131.96)">
<title>G</title>
<!-- n0&#45;&gt;n1 -->
<g class="edge">
<title>n0-&gt;n1</title>
<path d="M71.35,-59C84.46,-59 99.8,-59 114.67,-59" fill="none" stroke="#60748a" stroke-width="1.55"></path>
<polygon fill="#60748a" points="114.72,-61.52 121.92,-59 114.72,-56.48 114.72,-61.52" stroke="#60748a" stroke-width="1.55"></polygon>
</g>
<!-- n1&#45;&gt;n2 -->
<g class="edge">
<title>n1-&gt;n2</title>
<path d="M235.05,-73.3C253.08,-77.94 272.76,-83.01 289.57,-87.34" fill="none" stroke="#60748a" stroke-width="1.55"></path>
<polygon fill="#60748a" points="288.99,-89.79 296.59,-89.14 290.25,-84.91 288.99,-89.79" stroke="#60748a" stroke-width="1.55"></polygon>
<text fill="#34495e" font-family="DejaVu Sans" font-size="9.30" text-anchor="middle" x="266" y="-83.56">TP</text>
</g>
<!-- n1&#45;&gt;n3 -->
<g class="edge">
<title>n1-&gt;n3</title>
<path d="M235.41,-44.41C249.15,-40.83 260,-38 260,-38 260,-38 273.98,-34.65 289.54,-30.93" fill="none" stroke="#60748a" stroke-width="1.55"></path>
<polygon fill="#60748a" points="290.33,-33.33 296.75,-29.2 289.16,-28.43 290.33,-33.33" stroke="#60748a" stroke-width="1.55"></polygon>
<text fill="#34495e" font-family="DejaVu Sans" font-size="9.30" text-anchor="middle" x="266" y="-40.56">TP</text>
</g>
<!-- n2&#45;&gt;n4 -->
<g class="edge">
<title>n2-&gt;n4</title>
<path d="M367.3,-91.3C391.84,-86.5 425.86,-79.85 456.64,-73.83" fill="none" stroke="#60748a" stroke-width="1.55"></path>
<polygon fill="#60748a" points="457.4,-76.25 463.98,-72.39 456.43,-71.3 457.4,-76.25" stroke="#60748a" stroke-width="1.55"></polygon>
<text fill="#34495e" font-family="DejaVu Sans" font-size="9.30" text-anchor="middle" x="415.5" y="-87.56">all-reduce</text>
</g>
<!-- n3&#45;&gt;n4 -->
<g class="edge">
<title>n3-&gt;n4</title>
<path d="M367.12,-26.47C398.11,-31.44 439,-38 439,-38 439,-38 446.1,-39.59 456.39,-41.91" fill="none" stroke="#60748a" stroke-width="1.55"></path>
<polygon fill="#60748a" points="455.99,-44.4 463.57,-43.52 457.09,-39.48 455.99,-44.4" stroke="#60748a" stroke-width="1.55"></polygon>
<text fill="#34495e" font-family="DejaVu Sans" font-size="9.30" text-anchor="middle" x="415.5" y="-40.56">all-reduce</text>
</g>
<!-- n4&#45;&gt;n5 -->
<g class="edge">
<title>n4-&gt;n5</title>
<path d="M603.17,-59C635.06,-59 672.1,-59 700.46,-59" fill="none" stroke="#60748a" stroke-width="1.55"></path>
<polygon fill="#60748a" points="700.65,-61.52 707.85,-59 700.65,-56.48 700.65,-61.52" stroke="#60748a" stroke-width="1.55"></polygon>
<text fill="#34495e" font-family="DejaVu Sans" font-size="9.30" text-anchor="middle" x="655.5" y="-61.56">logits/token</text>
</g>
<!-- n0 -->
<g class="node">
<title>n0</title>
<path d="M59,-80C59,-80 12,-80 12,-80 6,-80 0,-74 0,-68 0,-68 0,-50 0,-50 0,-44 6,-38 12,-38 12,-38 59,-38 59,-38 65,-38 71,-44 71,-50 71,-50 71,-68 71,-68 71,-74 65,-80 59,-80" fill="#edf4ff" stroke="#2d5d9f" stroke-width="1.6"></path>
<text fill="#17212b" font-family="DejaVu Sans" font-size="12.00" font-weight="bold" text-anchor="start" x="16" y="-61.4">Batch</text>
<text fill="#465569" font-family="DejaVu Sans" font-size="10.00" text-anchor="start" x="14" y="-51">requests</text>
</g>
<!-- n1 -->
<g class="node">
<title>n1</title>
<path d="M223,-80C223,-80 134,-80 134,-80 128,-80 122,-74 122,-68 122,-68 122,-50 122,-50 122,-44 128,-38 134,-38 134,-38 223,-38 223,-38 229,-38 235,-44 235,-50 235,-50 235,-68 235,-68 235,-74 229,-80 223,-80" fill="#eefaf3" stroke="#287a4b" stroke-width="1.6"></path>
<text fill="#17212b" font-family="DejaVu Sans" font-size="12.00" font-weight="bold" text-anchor="start" x="136" y="-61.4">vLLM engine</text>
<text fill="#465569" font-family="DejaVu Sans" font-size="10.00" text-anchor="start" x="154.5" y="-51">scheduler</text>
</g>
<!-- n2 -->
<g class="node">
<title>n2</title>
<path d="M355,-119C355,-119 309,-119 309,-119 303,-119 297,-113 297,-107 297,-107 297,-89 297,-89 297,-83 303,-77 309,-77 309,-77 355,-77 355,-77 361,-77 367,-83 367,-89 367,-89 367,-107 367,-107 367,-113 361,-119 355,-119" fill="#fff0f0" stroke="#a23d3d" stroke-width="1.6"></path>
<text fill="#17212b" font-family="DejaVu Sans" font-size="12.00" font-weight="bold" text-anchor="start" x="311" y="-100.4">GPU 0</text>
<text fill="#465569" font-family="DejaVu Sans" font-size="10.00" text-anchor="start" x="313.5" y="-90">shard 0</text>
</g>
<!-- n3 -->
<g class="node">
<title>n3</title>
<path d="M355,-42C355,-42 309,-42 309,-42 303,-42 297,-36 297,-30 297,-30 297,-12 297,-12 297,-6 303,0 309,0 309,0 355,0 355,0 361,0 367,-6 367,-12 367,-12 367,-30 367,-30 367,-36 361,-42 355,-42" fill="#fff0f0" stroke="#a23d3d" stroke-width="1.6"></path>
<text fill="#17212b" font-family="DejaVu Sans" font-size="12.00" font-weight="bold" text-anchor="start" x="311" y="-23.4">GPU 1</text>
<text fill="#465569" font-family="DejaVu Sans" font-size="10.00" text-anchor="start" x="313.5" y="-13">shard 1</text>
</g>
<!-- n4 -->
<g class="node">
<title>n4</title>
<path d="M591,-80C591,-80 476,-80 476,-80 470,-80 464,-74 464,-68 464,-68 464,-50 464,-50 464,-44 470,-38 476,-38 476,-38 591,-38 591,-38 597,-38 603,-44 603,-50 603,-50 603,-68 603,-68 603,-74 597,-80 591,-80" fill="#fff7e8" stroke="#9a6410" stroke-width="1.6"></path>
<text fill="#17212b" font-family="DejaVu Sans" font-size="12.00" font-weight="bold" text-anchor="start" x="478" y="-61.4">Collective comm</text>
<text fill="#465569" font-family="DejaVu Sans" font-size="10.00" text-anchor="start" x="503.5" y="-51">NVLink/PCIe</text>
</g>
<!-- n5 -->
<g class="node">
<title>n5</title>
<path d="M774,-80C774,-80 720,-80 720,-80 714,-80 708,-74 708,-68 708,-68 708,-50 708,-50 708,-44 714,-38 720,-38 720,-38 774,-38 774,-38 780,-38 786,-44 786,-50 786,-50 786,-68 786,-68 786,-74 780,-80 774,-80" fill="#f8efff" stroke="#70459b" stroke-width="1.6"></path>
<text fill="#17212b" font-family="DejaVu Sans" font-size="12.00" font-weight="bold" text-anchor="start" x="722" y="-61.4">Decode</text>
<text fill="#465569" font-family="DejaVu Sans" font-size="10.00" text-anchor="start" x="729.5" y="-51">stream</text>
</g>
</g>
</svg>