<svg aria-label="Tensor parallelism: extra GPUs add communication, not just VRAM" class="diagram" role="img" viewbox="0 0 900 310"><defs><marker id="arrow" markerheight="10" markerunits="strokeWidth" markerwidth="10" orient="auto" refx="8" refy="3"><path d="M0,0 L0,6 L9,3 z" fill="#53657a"></path></marker></defs><line marker-end="url(#arrow)" stroke="#53657a" stroke-width="2" x1="145" x2="190" y1="147.5" y2="147.5"></line><line marker-end="url(#arrow)" stroke="#53657a" stroke-width="2" x1="255.0" x2="445.0" y1="180" y2="40"></line><text fill="#5c6875" font-size="10" text-anchor="middle" x="350.0" y="104.0">TP</text><line marker-end="url(#arrow)" stroke="#53657a" stroke-width="2" x1="255.0" x2="445.0" y1="180" y2="190"></line><text fill="#5c6875" font-size="10" text-anchor="middle" x="350.0" y="179.0">TP</text><line marker-end="url(#arrow)" stroke="#53657a" stroke-width="2" x1="445.0" x2="635.0" y1="105" y2="115"></line><text fill="#5c6875" font-size="10" text-anchor="middle" x="540.0" y="104.0">all-reduce</text><line marker-end="url(#arrow)" stroke="#53657a" stroke-width="2" x1="445.0" x2="635.0" y1="255" y2="115"></line><text fill="#5c6875" font-size="10" text-anchor="middle" x="540.0" y="179.0">all-reduce</text><line marker-end="url(#arrow)" stroke="#53657a" stroke-width="2" x1="705" x2="760" y1="147.5" y2="147.5"></line><text fill="#5c6875" font-size="10" text-anchor="middle" x="732.5" y="141.5">logits/token</text><rect fill="#edf4ff" height="65" rx="12" ry="12" stroke="#2d5d9f" stroke-width="1.5" width="120" x="25" y="115"></rect><text fill="#17212b" font-size="14" font-weight="700" text-anchor="middle" x="85.0" y="139">Batch</text><text fill="#465569" font-size="11" text-anchor="middle" x="85.0" y="160">requests</text><rect fill="#eefaf3" height="65" rx="12" ry="12" stroke="#287a4b" stroke-width="1.5" width="130" x="190" y="115"></rect><text fill="#17212b" font-size="14" font-weight="700" text-anchor="middle" x="255.0" y="139">vLLM engine</text><text fill="#465569" font-size="11" text-anchor="middle" x="255.0" y="160">scheduler</text><rect fill="#fff0f0" height="65" rx="12" ry="12" stroke="#a23d3d" stroke-width="1.5" width="130" x="380" y="40"></rect><text fill="#17212b" font-size="14" font-weight="700" text-anchor="middle" x="445.0" y="64">GPU 0</text><text fill="#465569" font-size="11" text-anchor="middle" x="445.0" y="85">shard 0</text><rect fill="#fff0f0" height="65" rx="12" ry="12" stroke="#a23d3d" stroke-width="1.5" width="130" x="380" y="190"></rect><text fill="#17212b" font-size="14" font-weight="700" text-anchor="middle" x="445.0" y="214">GPU 1</text><text fill="#465569" font-size="11" text-anchor="middle" x="445.0" y="235">shard 1</text><rect fill="#fff7e8" height="65" rx="12" ry="12" stroke="#9a6410" stroke-width="1.5" width="140" x="565" y="115"></rect><text fill="#17212b" font-size="14" font-weight="700" text-anchor="middle" x="635.0" y="139">Collective comm</text><text fill="#465569" font-size="11" text-anchor="middle" x="635.0" y="160">NVLink/PCIe</text><rect fill="#f8efff" height="65" rx="12" ry="12" stroke="#70459b" stroke-width="1.5" width="120" x="760" y="115"></rect><text fill="#17212b" font-size="14" font-weight="700" text-anchor="middle" x="820.0" y="139">Decode</text><text fill="#465569" font-size="11" text-anchor="middle" x="820.0" y="160">stream</text></svg>